Coordinates
version=1
nRows=13
nColumns=36
inDegrees=yes

Units are S.I. units (second, meters, Newtons, ...)
If the header above contains a line with 'inDegrees', this indicates whether rotational values are in degrees (yes) or radians (no).

endheader
time	pelvis_tilt	pelvis_list	pelvis_rotation	pelvis_tx	pelvis_ty	pelvis_tz	hip_flexion_r	hip_adduction_r	hip_rotation_r	knee_angle_r	knee_angle_r_beta	ankle_angle_r	subtalar_angle_r	mtp_angle_r	hip_flexion_l	hip_adduction_l	hip_rotation_l	knee_angle_l	knee_angle_l_beta	ankle_angle_l	subtalar_angle_l	mtp_angle_l	lumbar_extension	lumbar_bending	lumbar_rotation	arm_flex_r	arm_add_r	arm_rot_r	elbow_flex_r	pro_sup_r	arm_flex_l	arm_add_l	arm_rot_l	elbow_flex_l	pro_sup_l
      0.00000000	     -2.08949520	     -4.38022904	      0.09725333	     -1.02642273	      1.34591610	     -0.03348570	      0.46391041	      7.95969717	      7.23259552	      4.99077895	      0.08710552	      0.83956654	    -13.84041740	     -5.58812404	     -3.02246293	     -5.30042729	      3.41803413	      0.20840256	      0.00363731	      8.55144516	     -7.15379119	     -5.58812404	     -2.80870869	      3.32172332	      0.01544951	     -2.93843145	     -6.62132381	     -4.18516767	     52.69248149	     90.11646573	     -1.44441014	     -7.14076674	     15.35645422	     28.71252608	     71.12453888
      0.01694910	     -3.52977606	     -3.87746573	     -1.01654633	     -1.02437702	      1.34331086	     -0.03284134	      2.65324306	      7.23155336	      8.27167937	      6.59605847	      0.11512294	      3.99381008	    -11.35877283	     -6.16365302	     -1.56525515	     -4.31566817	      3.83220250	      0.20816451	      0.00363316	      7.70337408	     -7.82646844	     -6.16365302	     -0.41052595	      3.22866721	      0.66337513	     -4.50922311	     -5.62509256	     -7.89802044	     56.27776452	     86.66032958	     -2.41449900	     -5.89265706	     11.00672562	     27.96902510	     70.65951623
      0.03389830	     -4.48642306	     -3.12458151	     -1.90561668	     -1.02493687	      1.34097558	     -0.03169588	      3.62927388	      6.27176661	      7.99002895	      6.44093248	      0.11241548	      4.66625576	     -9.94381253	     -6.59766976	     -0.74813535	     -3.50172921	      2.62163754	      0.17506820	      0.00305552	      7.98914941	     -7.15312786	     -6.59766976	      1.22246790	      2.33947149	      1.25403486	     -5.16004174	     -5.10140161	     -9.06683948	     58.16010748	     87.64059779	     -2.96408961	     -6.45561200	     11.69902002	     28.09602633	     74.35449348
      0.05084750	     -4.77134301	     -2.89868778	     -2.53123624	     -1.02519528	      1.34765032	     -0.03085080	      3.89153052	      5.97012669	      7.97482591	      6.14209049	      0.10719970	      4.68733208	     -8.75243785	     -6.75091777	     -0.64572864	     -3.21577217	      1.95063620	      0.14229912	      0.00248359	      8.00906334	     -6.97306767	     -6.75091777	      1.88646077	      2.04290215	      1.20408532	     -5.33921098	     -5.46789537	     -7.96996944	     59.60853514	     85.67885761	     -3.31787627	     -6.92971785	     11.84180044	     29.00052780	     73.57397912
      0.06779660	     -5.12260314	     -2.82965815	     -2.97885850	     -1.03329035	      1.34984957	     -0.02478016	      4.40001376	      6.09181742	      8.01541460	      5.72497115	      0.09991960	      4.33217485	     -8.38646452	     -6.87835986	     -0.17261978	     -3.23920562	      1.41956331	      0.12817891	      0.00223714	      7.80558464	     -6.69760294	     -6.87835986	      2.12252511	      1.85796960	      1.25785286	     -5.34629736	     -5.72595380	     -6.50396325	     62.04301804	     84.14049729	     -3.12127095	     -7.31550718	     12.73298599	     29.31394705	     73.23794490
      0.08474580	     -5.12299077	     -2.80765971	     -3.11973497	     -1.03292371	      1.34482495	     -0.02474719	      4.47864722	      6.18360605	      8.29082017	      5.57077943	      0.09722844	      4.17909433	     -8.37171607	     -6.97301971	     -0.07454159	     -3.29115406	      1.15214270	      0.12350182	      0.00215551	      7.61934549	     -6.61987300	     -6.97301971	      2.10721026	      1.72648383	      1.93814012	     -6.28186492	     -5.91331206	     -6.92023373	     66.12429200	     83.47738997	     -2.07005310	     -7.78747586	     14.57545630	     29.24042393	     74.23525981
      0.10169490	     -5.17413020	     -2.75204744	     -3.05720351	     -1.03356327	      1.35165268	     -0.02537287	      4.57105756	      6.18048421	      8.29688068	      5.32819423	      0.09299453	      4.02044740	     -8.14550600	     -7.13352907	      0.14165537	     -3.27001510	      1.08744450	      0.12014908	      0.00209700	      7.35921292	     -6.27698960	     -7.13352907	      2.11315901	      1.54763906	      2.01407691	     -7.24037814	     -6.31822704	     -6.61699129	     70.09145960	     81.76375403	     -1.38173996	     -7.90038272	     15.29281598	     29.19299231	     73.96402902
      0.11864410	     -4.93240966	     -2.71451488	     -3.02496024	     -1.03370263	      1.34679072	     -0.02440636	      4.30007975	      6.15059806	      8.40608089	      5.20581423	      0.09085860	      4.03242279	     -8.12938857	     -7.18737617	     -0.02121269	     -3.26279812	      1.04398054	      0.12035392	      0.00210057	      7.20217751	     -6.15976336	     -7.18737617	      1.79498345	      1.44380158	      1.22062479	     -7.71378951	     -7.05590174	     -5.34950902	     75.27682735	     79.83383985	     -1.87487779	     -8.09869950	     15.02084829	     30.48201016	     72.53362232
      0.13559320	     -4.78638639	     -2.67584164	     -3.16624068	     -1.03377001	      1.34309370	     -0.02483258	      4.09055382	      6.08106171	      8.43658160	      5.19974486	      0.09075267	      3.94087086	     -8.23822737	     -7.23653217	     -0.19978949	     -3.25620847	      0.75669896	      0.12720216	      0.00222010	      6.86511216	     -6.36583925	     -7.23653217	      1.46753143	      1.47679032	      1.05495608	     -8.54707752	     -7.96057292	     -4.87337184	     80.73336925	     78.45893106	     -2.09529635	     -8.26124099	     14.64363470	     31.68715686	     71.51811920
      0.15254240	     -4.65285919	     -2.57182054	     -3.51253720	     -1.03325329	      1.34723937	     -0.02394676	      3.81241653	      5.97889089	      8.25246985	      5.10430683	      0.08908696	      3.90012425	     -7.89767648	     -7.28870983	     -0.41829056	     -3.17464787	      0.40602636	      0.13334402	      0.00232729	      6.57453122	     -6.29628007	     -7.28870983	      1.26613978	      1.55720264	      1.25941408	     -9.31023444	     -8.89796053	     -4.92959025	     86.50531229	     77.52714521	     -2.47906792	     -8.27756297	     14.56388128	     32.75064426	     70.82379228
      0.16949150	     -4.48798895	     -2.44531180	     -4.01627053	     -1.03357888	      1.34368914	     -0.02333692	      3.59624840	      5.91381506	      8.38647339	      5.18525472	      0.09049977	      3.96989624	     -7.89714921	     -7.32493935	     -0.67517345	     -3.08514119	     -0.28631224	      0.15158441	      0.00264565	      6.27478059	     -6.56580772	     -7.32493935	      0.93769071	      1.57197913	      2.58227514	    -10.55623122	     -9.36513576	     -6.84709051	     93.96819081	     78.19443114	     -2.20877399	     -8.21982689	     14.84729247	     33.70544156	     71.01606812
      0.18644070	     -4.24777313	     -2.31099058	     -4.45572851	     -1.03205906	      1.34086549	     -0.02286263	      3.12940058	      5.77006632	      8.37533697	      5.08380917	      0.08872921	      4.13581002	     -7.77060542	     -7.35683469	     -0.99080705	     -2.96673174	     -0.78668322	      0.19361515	      0.00337922	      5.77089744	     -7.16496618	     -7.35683469	      0.64670070	      1.63176935	      2.39931499	    -10.29706085	    -10.79705708	     -5.90417829	    100.62725603	     77.39809307	     -2.99561072	     -8.22466966	     14.65662758	     34.76307826	     70.17348370
      0.20338980	     -4.09518566	     -2.20781908	     -4.88941269	     -1.03185222	      1.34953215	     -0.02326058	      2.68647296	      5.59937618	      8.44841925	      4.81112422	      0.08396996	      3.97104806	     -8.00276621	     -7.38824002	     -1.17746009	     -2.87773062	     -1.51789333	      0.23457613	      0.00409413	      5.50759802	     -7.32846307	     -7.38824002	      0.27767846	      1.61132040	      4.23559962	    -10.53582683	    -11.76716515	     -8.78878921	    107.09067920	     82.09823195	     -2.15211961	     -8.09999376	     16.28303910	     34.33776195	     71.52450840
